# File created by Blade
# Date/Time:  Tue Jan 27 19:18:41 2015
# Frame Rate: 120.000 fps
#------------------------------------------------------
:FULLY-SPECIFIED
:DEGREES
2596
root 3.592246 32.321222 1.237180 -3.995100 2.676136 0.911084
Spine 0.469950 2.044818 0.938088
Head 14.785491 -12.877955 -16.061273
LeftShoulder -8.882545 -3.383976 20.963789
LeftArm -3.725645 38.829503 -99.197944
LeftForeArm 6.173849 -0.000000 16.994874
LeftHand 10.559645 -0.000000 -3.498521
LeftHandThumb1 -26.253704 0.000000 33.147579
RightShoulder -13.192962 -5.428525 -49.872002
RightArm 17.257356 0.056492 7.973744
RightForeArm 24.567228 -0.000000 95.558842
RightHand 27.970253 0.000000 -3.221697
RightHandThumb1 -24.326973 -0.000000 -32.862282
LeftUpLeg 10.588653 -0.465266 -0.230093
LeftLeg 2.522605 -0.000000 -0.000000
LeftFoot -17.198643 11.206087 -23.464348
LeftToeBase 16.802962 -0.000000 -0.000000
RightUpLeg 10.175115 -8.502075 1.399501
RightLeg 0.851837 -0.000000 -0.000000
RightFoot -13.822942 -15.714934 13.930283
RightToeBase 10.017004 -0.000000 -0.000000
2597
root 3.589212 32.319544 1.232539 -4.027060 2.506687 0.896753
Spine 0.525765 2.147637 0.910756
Head 14.741928 -13.090338 -16.142293
LeftShoulder -8.913465 -3.400692 20.758662
LeftArm -3.753544 38.865417 -99.071444
LeftForeArm 6.363651 0.000000 17.089191
LeftHand 10.489595 -0.000000 -2.635427
LeftHandThumb1 -26.253704 0.000000 33.147579
RightShoulder -12.841379 -5.764759 -49.773719
RightArm 17.705892 -0.709029 7.943006
RightForeArm 24.488277 -0.000000 95.723593
RightHand 27.996986 -0.000000 -2.895170
RightHandThumb1 -24.326973 -0.000000 -32.862282
LeftUpLeg 10.625704 -0.376103 -0.213329
LeftLeg 2.539923 -0.000000 -0.000000
LeftFoot -17.279555 11.310024 -23.352097
LeftToeBase 17.014821 -0.000000 -0.000000
RightUpLeg 10.157961 -8.350653 1.429452
RightLeg 0.888047 -0.000000 -0.000000
RightFoot -13.832500 -15.705841 13.919848
RightToeBase 10.045174 -0.000000 -0.000000
2598
root 3.584664 32.317109 1.228559 -4.076326 2.349425 0.881401
Spine 0.604363 2.262368 0.879966
Head 14.698444 -13.342439 -16.227459
LeftShoulder -8.950420 -3.325951 20.561435
LeftArm -3.624907 38.948729 -98.866580
LeftForeArm 6.198482 -0.000000 17.161179
LeftHand 10.722543 -0.000000 -3.349147
LeftHandThumb1 -26.253704 0.000000 33.147579
RightShoulder -12.505262 -6.111505 -49.656470
RightArm 18.115371 -1.375817 7.991728
RightForeArm 24.529524 0.000000 95.866554
RightHand 28.099068 -0.000000 -2.651266
RightHandThumb1 -24.326973 -0.000000 -32.862282
LeftUpLeg 10.678401 -0.288324 -0.193007
LeftLeg 2.566946 -0.000000 -0.000000
LeftFoot -17.325650 11.289716 -23.546846
LeftToeBase 16.812569 -0.000000 -0.000000
RightUpLeg 10.170740 -8.226245 1.458726
RightLeg 0.906840 -0.000000 -0.000000
RightFoot -13.844054 -15.696153 13.911374
RightToeBase 10.111592 -0.000000 -0.000000
2599
root 3.580697 32.315939 1.221556 -4.089035 2.180558 0.866919
Spine 0.654859 2.391303 0.855244
Head 14.624937 -13.567016 -16.323854
LeftShoulder -8.993482 -3.397983 20.358167
LeftArm -3.683788 39.049229 -98.771838
LeftForeArm 6.121696 -0.000000 17.211739
LeftHand 10.629504 0.000000 -3.420057
LeftHandThumb1 -26.253704 0.000000 33.147579
RightShoulder -12.214699 -5.991463 -49.644462
RightArm 18.514311 -2.355823 8.129116
RightForeArm 24.925596 -0.000000 95.993760
RightHand 27.973067 -0.000000 -1.883653
RightHandThumb1 -24.326973 -0.000000 -32.862282
LeftUpLeg 10.690733 -0.213912 -0.179431
LeftLeg 2.595945 -0.000000 -0.000000
LeftFoot -17.397764 11.337207 -23.622538
LeftToeBase 16.760874 -0.000000 -0.000000
RightUpLeg 10.132013 -8.079022 1.494727
RightLeg 0.938057 -0.000000 -0.000000
RightFoot -13.832093 -15.710081 13.871749
RightToeBase 10.026378 -0.000000 -0.000000
2600
root 3.576962 32.313240 1.216310 -4.127167 2.002868 0.853528
Spine 0.726817 2.572357 0.829413
Head 14.581122 -13.777253 -16.416750
LeftShoulder -9.013509 -3.400847 20.176876
LeftArm -3.615038 39.246933 -98.629674
LeftForeArm 6.041719 -0.000000 17.249670
LeftHand 10.567650 -0.000000 -3.449920
LeftHandThumb1 -26.253704 0.000000 33.147579
RightShoulder -11.927613 -5.964423 -49.565053
RightArm 18.842812 -3.237308 8.233084
RightForeArm 24.905680 -0.000000 96.107816
RightHand 28.062064 -0.000000 -1.541665
RightHandThumb1 -24.326973 -0.000000 -32.862282
LeftUpLeg 10.736842 -0.131497 -0.163791
LeftLeg 2.617241 -0.000000 -0.000000
LeftFoot -17.477987 11.377468 -23.679765
LeftToeBase 16.841785 -0.000000 -0.000000
RightUpLeg 10.134078 -7.964278 1.516438
RightLeg 0.945713 -0.000000 -0.000000
RightFoot -13.815972 -15.666238 13.825450
RightToeBase 10.067468 -0.000000 -0.000000
2601
root 3.572919 32.310417 1.212256 -4.171448 1.834324 0.833117
Spine 0.811412 2.762564 0.811155
Head 14.506440 -13.996118 -16.479291
LeftShoulder -9.042302 -3.415471 20.025272
LeftArm -3.537274 39.440920 -98.534686
LeftForeArm 6.236294 -0.000000 17.227968
LeftHand 10.468136 -0.000000 -2.504665
LeftHandThumb1 -26.253704 0.000000 33.147579
RightShoulder -11.640802 -6.181904 -49.393122
RightArm 19.122813 -3.877642 8.281580
RightForeArm 24.460508 0.000000 96.260692
RightHand 28.120348 -0.000000 -1.853531
RightHandThumb1 -24.326973 -0.000000 -32.862282
LeftUpLeg 10.791782 -0.038478 -0.137057
LeftLeg 2.635545 -0.000000 -0.000000
LeftFoot -17.555275 11.396773 -23.726874
LeftToeBase 16.825849 -0.000000 -0.000000
RightUpLeg 10.144960 -7.864542 1.542899
RightLeg 0.955631 -0.000000 -0.000000
RightFoot -13.779797 -15.621297 13.754466
RightToeBase 9.972532 -0.000000 -0.000000
2602
root 3.569060 32.307042 1.207305 -4.189258 1.672765 0.824680
Spine 0.868014 2.982953 0.777523
Head 14.433626 -14.197265 -16.516635
LeftShoulder -9.052253 -3.501411 19.895646
LeftArm -3.547478 39.642150 -98.485026
LeftForeArm 6.066472 -0.000000 17.222825
LeftHand 10.626085 -0.000000 -3.373708
LeftHandThumb1 -26.253704 0.000000 33.147579
RightShoulder -11.418275 -6.216858 -49.299406
RightArm 19.436649 -4.692914 8.360815
RightForeArm 24.365024 -0.000000 96.430016
RightHand 27.945145 -0.000000 -2.014888
RightHandThumb1 -24.326973 -0.000000 -32.862282
LeftUpLeg 10.815814 0.064729 -0.122081
LeftLeg 2.659165 -0.000000 -0.000000
LeftFoot -17.626120 11.425669 -23.758314
LeftToeBase 16.812635 -0.000000 -0.000000
RightUpLeg 10.132034 -7.738994 1.562858
RightLeg 0.962615 -0.000000 -0.000000
RightFoot -13.795094 -15.577904 13.759276
RightToeBase 9.996592 -0.000000 -0.000000
2603
root 3.565805 32.304149 1.204432 -4.221486 1.543652 0.809520
Spine 0.943956 3.211388 0.768623
Head 14.375813 -14.399455 -16.597165
LeftShoulder -9.070471 -3.490778 19.758723
LeftArm -3.384798 39.954838 -98.353747
LeftForeArm 5.906050 -0.000000 17.183222
LeftHand 10.607437 0.000000 -3.664802
LeftHandThumb1 -26.253704 0.000000 33.147579
RightShoulder -11.242513 -6.503744 -49.141833
RightArm 19.737758 -5.269915 8.348934
RightForeArm 24.119485 0.000000 96.576452
RightHand 27.838531 0.000000 -2.483217
RightHandThumb1 -24.326973 -0.000000 -32.862282
LeftUpLeg 10.856680 0.114169 -0.107669
LeftLeg 2.672700 -0.000000 -0.000000
LeftFoot -17.701595 11.467881 -23.805162
LeftToeBase 16.827623 -0.000000 -0.000000
RightUpLeg 10.149710 -7.681622 1.578799
RightLeg 0.952210 -0.000000 -0.000000
RightFoot -13.779728 -15.522901 13.726820
RightToeBase 9.988635 -0.000000 -0.000000
2604
root 3.564058 32.300851 1.202152 -4.236624 1.431512 0.800205
Spine 0.996515 3.479029 0.740837
Head 14.319566 -14.622361 -16.614691
LeftShoulder -9.047637 -3.637462 19.693508
LeftArm -3.428241 40.176361 -98.396898
LeftForeArm 6.147267 0.000000 17.133483
LeftHand 10.467481 -0.000000 -2.854903
LeftHandThumb1 -26.253704 0.000000 33.147579
RightShoulder -11.154771 -7.221921 -48.850150
RightArm 20.149217 -5.533607 8.181719
RightForeArm 23.687007 -0.000000 96.633407
RightHand 28.110120 -0.000000 -2.459014
RightHandThumb1 -24.326973 -0.000000 -32.862282
LeftUpLeg 10.885724 0.159844 -0.103080
LeftLeg 2.681013 -0.000000 -0.000000
LeftFoot -17.769680 11.506768 -23.818680
LeftToeBase 16.713302 -0.000000 -0.000000
RightUpLeg 10.153013 -7.604344 1.595285
RightLeg 0.941230 -0.000000 -0.000000
RightFoot -13.770758 -15.502599 13.689808
RightToeBase 10.035087 -0.000000 -0.000000
2605
root 3.562228 32.300875 1.197340 -4.229181 1.333508 0.782787
Spine 1.018142 3.734061 0.755777
Head 14.276579 -14.784548 -16.693997
LeftShoulder -9.009070 -3.694154 19.562165
LeftArm -3.382610 40.436930 -98.351059
LeftForeArm 6.095710 -0.000000 17.122796
LeftHand 10.443792 -0.000000 -2.694463
LeftHandThumb1 -26.253704 0.000000 33.147579
RightShoulder -11.109161 -6.775045 -48.928256
RightArm 20.474686 -6.930394 8.172391
RightForeArm 23.419001 -0.000000 96.612303
RightHand 28.377096 -0.000000 -2.526033
RightHandThumb1 -24.326973 -0.000000 -32.862282
LeftUpLeg 10.873632 0.240738 -0.077890
LeftLeg 2.688655 -0.000000 -0.000000
LeftFoot -17.805024 11.603687 -23.630436
LeftToeBase 17.020678 -0.000000 -0.000000
RightUpLeg 10.151795 -7.445599 1.643417
RightLeg 0.879179 -0.000000 -0.000000
RightFoot -13.728829 -15.613582 13.649716
RightToeBase 10.031430 -0.000000 -0.000000
